# File created by Blade
# Date/Time:  Thu Sep 25 21:01:51 2014
# Frame Rate: 120.000 fps
#------------------------------------------------------
:FULLY-SPECIFIED
:DEGREES
2535
root 4.251594 6.074976 -6.695488 31.355936 5.229955 -32.164789
Spine -13.581218 4.316400 42.041771
Head -31.103071 8.357517 13.431607
LeftShoulder -7.014718 14.470876 13.359600
LeftArm 40.628498 52.409699 -50.626057
LeftForeArm 17.663014 -0.000000 40.955154
LeftHand -29.420127 -0.000000 15.772694
LeftHandThumb1 -26.253704 0.000000 33.147579
RightShoulder -29.985913 12.337283 -24.780094
RightArm -68.562699 58.867970 16.978152
RightForeArm 39.775665 0.000000 112.658280
RightHand -2.845904 -0.000000 15.266832
RightHandThumb1 -24.326973 -0.000000 -32.862282
LeftUpLeg -110.078308 -17.872183 -40.593756
LeftLeg 134.358585 -0.000000 -0.000000
LeftFoot 42.248950 8.855290 -22.111878
LeftToeBase 9.023821 -0.000000 -0.000000
RightUpLeg -26.997695 49.914034 -62.660390
RightLeg 135.534227 -0.000000 -0.000000
RightFoot 39.198443 5.592107 -15.861625
RightToeBase 19.132994 -0.000000 -0.000000
2536
root 4.252723 6.074143 -6.697288 31.345394 5.219508 -32.161180
Spine -13.561350 4.318883 42.031716
Head -31.176544 8.309718 13.460465
LeftShoulder -7.020229 14.421673 13.361776
LeftArm 40.654743 52.449206 -50.583570
LeftForeArm 17.635748 -0.000000 40.952801
LeftHand -29.413607 -0.000000 15.752291
LeftHandThumb1 -26.253704 0.000000 33.147579
RightShoulder -29.991004 12.316985 -24.778261
RightArm -68.549796 58.840986 16.987653
RightForeArm 39.708495 0.000000 112.633781
RightHand -2.836331 -0.000000 15.223799
RightHandThumb1 -24.326973 -0.000000 -32.862282
LeftUpLeg -110.075198 -17.866420 -40.602082
LeftLeg 134.353585 -0.000000 -0.000000
LeftFoot 42.247013 8.846406 -22.094070
LeftToeBase 8.983591 -0.000000 -0.000000
RightUpLeg -26.985628 49.900371 -62.650966
RightLeg 135.506149 -0.000000 -0.000000
RightFoot 39.186794 5.515586 -15.829631
RightToeBase 19.320922 -0.000000 -0.000000
2537
root 4.252205 6.073458 -6.698000 31.325544 5.214828 -32.165116
Spine -13.535565 4.311193 42.028864
Head -31.256747 8.287742 13.498195
LeftShoulder -7.026831 14.392507 13.359395
LeftArm 40.682053 52.464661 -50.537061
LeftForeArm 17.624922 -0.000000 40.959978
LeftHand -29.395640 -0.000000 15.689663
LeftHandThumb1 -26.253704 0.000000 33.147579
RightShoulder -29.995038 12.296445 -24.759330
RightArm -68.514739 58.823440 17.004827
RightForeArm 39.671828 -0.000000 112.600887
RightHand -2.804790 -0.000000 15.144938
RightHandThumb1 -24.326973 -0.000000 -32.862282
LeftUpLeg -110.066992 -17.853148 -40.607202
LeftLeg 134.357481 -0.000000 -0.000000
LeftFoot 42.229083 8.838502 -22.102050
LeftToeBase 9.081016 -0.000000 -0.000000
RightUpLeg -26.960172 49.880084 -62.617402
RightLeg 135.484472 -0.000000 -0.000000
RightFoot 39.187012 5.499239 -15.839376
RightToeBase 19.317521 -0.000000 -0.000000
2538
root 4.252139 6.072034 -6.699026 31.301889 5.201499 -32.178747
Spine -13.497518 4.317377 42.029301
Head -31.339767 8.255863 13.548096
LeftShoulder -7.022887 14.380961 13.367829
LeftArm 40.731656 52.468172 -50.497235
LeftForeArm 17.610907 -0.000000 40.959932
LeftHand -29.434162 -0.000000 15.722533
LeftHandThumb1 -26.253704 0.000000 33.147579
RightShoulder -30.022153 12.297056 -24.769541
RightArm -68.498991 58.815850 17.017728
RightForeArm 39.641614 0.000000 112.563638
RightHand -2.822290 -0.000000 15.135473
RightHandThumb1 -24.326973 -0.000000 -32.862282
LeftUpLeg -110.066497 -17.836012 -40.600282
LeftLeg 134.357548 -0.000000 -0.000000
LeftFoot 42.241031 8.874724 -22.139625
LeftToeBase 9.055557 -0.000000 -0.000000
RightUpLeg -26.950263 49.883536 -62.599689
RightLeg 135.473151 -0.000000 -0.000000
RightFoot 39.191009 5.558428 -15.891355
RightToeBase 19.201075 -0.000000 -0.000000
2539
root 4.251345 6.070944 -6.700452 31.283321 5.192326 -32.193842
Spine -13.464382 4.320770 42.032317
Head -31.422570 8.209352 13.589814
LeftShoulder -7.032350 14.337827 13.378523
LeftArm 40.735007 52.491659 -50.488703
LeftForeArm 17.602117 -0.000000 40.974063
LeftHand -29.446730 0.000000 15.657744
LeftHandThumb1 -26.253704 0.000000 33.147579
RightShoulder -30.051243 12.321954 -24.781254
RightArm -68.483125 58.786678 17.030517
RightForeArm 39.619568 0.000000 112.526249
RightHand -2.795960 -0.000000 15.103391
RightHandThumb1 -24.326973 -0.000000 -32.862282
LeftUpLeg -110.067904 -17.826566 -40.591525
LeftLeg 134.366363 -0.000000 -0.000000
LeftFoot 42.215060 8.827715 -22.088400
LeftToeBase 9.062162 -0.000000 -0.000000
RightUpLeg -26.946189 49.876342 -62.579382
RightLeg 135.473235 -0.000000 -0.000000
RightFoot 39.201825 5.594382 -15.950916
RightToeBase 19.268139 -0.000000 -0.000000
